<svg width="69" height="86" viewBox="0 0 69 86" fill="none" xmlns="http://www.w3.org/2000/svg">
<path d="M43.7429 1.2899C43.0528 2.02064 41.4174 3.5681 40.1122 4.75735C35.7613 8.68332 34.8761 10.0875 34.756 13.297C34.666 15.9048 35.2962 17.8821 36.9315 20.1317C37.3666 20.7334 37.7267 21.192 37.7267 21.1346C37.7267 21.0917 37.4566 20.5328 37.1265 19.9024C35.8663 17.4952 35.4912 14.5723 36.1813 12.4947C36.8265 10.546 37.7717 9.37108 40.9674 6.5484C41.6425 5.96093 42.4677 5.14422 42.8127 4.75735L43.4579 4.04094L43.3679 7.04988C43.3228 9.04152 43.2178 10.417 43.0528 11.1335C42.4977 13.555 41.4174 15.4749 39.452 17.5812C38.0267 19.1143 37.6216 19.9884 38.0117 20.7048C38.0717 20.8337 38.1768 21.3782 38.2368 21.894L38.3268 22.8397L37.4716 23.3842C34.576 25.2182 32.5356 27.869 31.7104 30.8779C31.4854 31.6803 31.3953 32.454 31.3953 33.7006C31.3803 36.3513 31.8904 38.5579 33.1807 41.3376L33.8559 42.7991L33.6158 43.9453C33.3758 45.1059 33.3007 48.5591 33.5108 49.4618C33.5858 49.82 33.6758 49.8916 34.0509 49.8916H34.501L34.606 48.0432C34.9961 41.4522 37.2766 37.6265 42.6327 34.5746C46.7586 32.2248 47.9738 30.9066 50.7194 25.8057C52.8799 21.7508 53.57 20.6761 55.2353 18.6272L56.1805 17.4666L54.8453 18.0111C52.6848 18.8994 49.5792 19.7878 45.8284 20.5902C42.2276 21.3496 40.5923 21.7937 39.347 22.3955C38.9569 22.5818 38.5969 22.7394 38.5518 22.7394C38.5068 22.7394 38.4918 22.1663 38.5368 21.4499C38.6119 19.9167 38.6269 19.8881 40.9523 17.5669C42.2126 16.3203 42.7377 15.6612 43.1728 14.8445C44.133 13.0248 44.208 12.4947 44.103 8.98421C43.998 5.6887 44.178 3.53945 44.7782 1.14661C44.9282 0.530499 45.0482 0.0146751 45.0332 0.000347137C45.0182 -0.0139809 44.4331 0.573483 43.7429 1.2899ZM50.6594 23.7567C47.6438 29.0582 45.5433 31.3078 40.7273 34.417C39.7821 35.0331 38.6719 35.8069 38.2668 36.1221C36.7815 37.297 35.0861 39.6182 34.441 41.3519C34.2909 41.7674 34.1259 42.054 34.0809 41.9824C33.8409 41.6242 33.1957 38.7012 33.0457 37.34C32.5506 32.8266 34.306 28.8719 37.9967 26.2212C40.1122 24.6881 42.0326 23.986 45.9034 23.3125C47.5537 23.026 50.1793 22.2952 51.3045 21.8224C51.5596 21.7221 51.7696 21.6505 51.7996 21.6648C51.8146 21.6791 51.3045 22.6248 50.6594 23.7567Z" fill="#151618"/>
<path d="M17.3447 4.86873C18.2395 8.09706 18.5079 12.3298 18.0754 16.2898C17.5386 21.2256 17.986 22.7178 21.1773 26.7783C22.0423 27.8688 23.0116 29.2893 23.3546 29.9206C24.3239 31.8002 24.8459 34.4689 24.8608 37.6829V39.0173L24.5029 38.8738C23.6678 38.5725 22.1616 38.4434 18.3737 38.3716C16.1666 38.3286 13.8849 38.2282 13.3033 38.1708C12.7366 38.099 12.2445 38.0703 12.2296 38.0847C12.1998 38.099 12.498 38.3286 12.9007 38.6012C14.5858 39.7634 16.2859 41.27 18.2544 43.3504C19.4176 44.57 20.8045 45.9188 21.3563 46.3349C23.7125 48.1284 26.4117 49.1758 29.6776 49.5488C31.0198 49.7067 30.4829 49.2188 28.2162 48.2719C24.6073 46.751 22.8028 45.517 20.029 42.6904C18.9851 41.6287 17.7175 40.4952 17.2254 40.1652L16.3306 39.5912H18.0903C22.7133 39.5912 25.3231 40.4521 27.5451 42.7048C28.6486 43.8096 29.439 45.187 29.8417 46.6649C29.961 47.1384 30.0952 47.5544 30.1399 47.5975C30.2891 47.7266 30.2443 45.9044 30.0803 44.9C29.7373 42.8196 28.0074 40.5239 26.024 39.5195L25.159 39.089V36.7216C25.159 32.0154 24.7266 30.3941 22.4598 26.7209C19.4623 21.8426 18.9702 19.9199 19.0597 13.162C19.0895 11.0671 19.1342 9.34535 19.1492 9.3597C19.1492 9.37405 19.4623 9.77579 19.8202 10.2493C20.1931 10.7228 21.5203 12.1432 22.7879 13.4059C25.8599 16.462 27.0381 18.2268 27.7688 20.8813C28.589 23.7939 27.9179 27.8688 25.9792 31.8002C25.6213 32.5319 25.3529 33.1346 25.3678 33.1346C25.3976 33.1346 25.6512 32.7902 25.9494 32.3598C28.2907 28.9736 29.4689 25.157 29.2899 21.5843C29.1855 19.633 28.7829 18.1121 27.9328 16.419C27.0679 14.6685 26.0687 13.4346 23.1756 10.5506C20.9238 8.29794 19.3729 6.63355 17.7474 4.79699L17.121 4.07958L17.3447 4.86873Z" fill="#151618"/>
<path d="M44.2364 40.036C40.8109 40.7349 38.4822 43.6446 38.4671 47.2105C38.4671 47.9236 38.4371 47.9807 38.0014 48.1233C37.2201 48.3801 37.7911 48.5084 40.2099 48.6083C43.6654 48.7509 45.7838 48.3658 47.5867 47.2533C48.0825 46.9537 49.3295 45.9981 50.3661 45.128C52.4695 43.3879 53.5512 42.6462 55.3241 41.7476L56.5109 41.1486L55.0686 41.0487C54.2874 41.0059 52.8902 40.8205 51.9587 40.6636C51.0272 40.5067 49.5548 40.25 48.6835 40.1073C46.8505 39.7936 45.5284 39.765 44.2364 40.036ZM49.1943 41.8189C49.9304 41.9901 51.0723 42.1755 51.7033 42.2183L52.8751 42.3182L51.2375 43.5733C48.7435 45.4846 47.0909 46.3547 44.9725 46.8682C43.8908 47.1392 39.0531 47.8381 38.9479 47.7382C38.8127 47.6098 39.2484 46.2834 39.7742 45.2421C40.6907 43.4307 42.4184 42.1327 44.5969 41.605C45.7087 41.334 47.4515 41.4196 49.1943 41.8189Z" fill="#151618"/>
<path d="M10.7202 55.6406C10.5397 63.3895 10.9608 66.0109 12.9913 69.9142C14.0592 71.9594 15.7888 74.3503 17.0221 75.4738C17.3229 75.7475 17.5636 76.0067 17.5636 76.0499C17.5636 76.1075 13.8185 76.1219 9.26123 76.0931C4.68892 76.0643 0.793423 76.0931 0.597896 76.1363C0.41741 76.1795 0.176762 76.3812 0.0865185 76.5684C-0.0488461 76.8709 -0.0338056 76.9717 0.191802 77.2166C0.462531 77.5046 0.627979 77.5046 34.1382 77.5046C57.075 77.5046 67.9042 77.4614 68.1148 77.3606C68.5058 77.159 68.5058 76.41 68.1148 76.2084C67.9192 76.1219 64.8209 76.0643 59.0754 76.0643H50.3369L51.2543 75.0129C53.8714 72.0602 55.571 68.8195 56.684 64.6858C56.9998 63.548 57.0299 63.0583 57.075 57.297L57.1502 51.1469H33.9878H10.8254L10.7202 55.6406Z" fill="#151618"/>
<path d="M4.47785 79.4549C9.56004 81.7461 17.3938 83.6129 24.7014 84.2777C25.9945 84.4049 26.5809 84.504 26.3553 84.5605C26.0396 84.6454 26.0245 84.6595 26.2801 84.6737C26.4455 84.6878 27.468 84.7585 28.5355 84.8434C34.0387 85.2252 45.827 84.999 45.4962 84.504C45.4511 84.4332 45.4662 84.4049 45.5564 84.4474C45.6315 84.4898 45.9022 84.4757 46.1428 84.4049C46.5638 84.2918 46.5638 84.2918 45.9774 84.2635C45.6165 84.2494 46.3834 84.0797 47.8569 83.8392C52.4429 83.1038 56.2169 82.2128 59.3144 81.1379C61.0886 80.5156 64.5319 79.1013 64.7725 78.8751C64.8476 78.8043 53.1045 78.7478 33.9485 78.7619L2.97424 78.7761L4.47785 79.4549Z" fill="#151618"/>
</svg>
